PathFileType	4	(X/Y/Z)	C:/Users/beibeiliu/ov580/test_trc/User1\sequence.31_training_dense_right.trc
DataRate	CameraRate	NumFrames	NumMarkers	Units	OrigDataRate	OrigDataStartFrame	OrigNumFrames
120	120	14	19	mm	120	161	256
Frame#	Time	ThumbCMC			ThumbMCP			ThumbIP			ThumbTip			IndexMCP			IndexPIP			IndexTip			MiddleMCP			MiddlePIP			MiddleTip			RingMCP			RingPIP			RingTip			PinkyMCP			PinkyPIP			PinkyTip			BackHand1			BackHand2			BackHand3	
		X0	Y0	Z0	X1	Y1	Z1	X2	Y2	Z2	X3	Y3	Z3	X4	Y4	Z4	X5	Y5	Z5	X6	Y6	Z6	X7	Y7	Z7	X8	Y8	Z8	X9	Y9	Z9	X10	Y10	Z10	X11	Y11	Z11	X12	Y12	Z12	X13	Y13	Z13	X14	Y14	Z14	X15	Y15	Z15	X16	Y16	Z16	X17	Y17	Z17	X18	Y18	Z18	
160	1.33333	164.654	-31.125	41.6185	146.516	-59.1984	23.4493	141.304	-74.3818	-0.723556	153.815	-91.9006	-25.3736	164.691	-8.75292	-34.9686	159.884	-17.0921	-64.6441	152.783	-51.5225	-77.9378	195.708	-5.59928	-46.0032	191.526	-18.9159	-78.9236	188.229	-51.8267	-86.0033	218.521	-17.0238	-43.0545	213.918	-33.0168	-71.0484	206.322	-66.297	-70.7722	240.028	-40.5571	-27.1702	232.745	-56.5418	-46.8852	215.754	-81.7691	-46.6558	223.977	-11.2209	16.1025	230.691	-7.65779	43.5679	190.35	-2.24335	31.526	
161	1.34167	163.842	-30.4163	46.0648	147.945	-57.8251	21.7387	144.089	-72.4699	-5.15087	152.913	-88.924	-22.2952	166.812	-7.67421	-33.644	161.942	-17.5571	-65.4073	153.274	-51.5062	-75.5415	196.21	-5.0457	-45.4986	197.685	-17.374	-75.6472	184.806	-51.5045	-85.2894	220.589	-18.2544	-40.9012	216.08	-33.9932	-70.97	207.682	-62.7226	-72.0183	239.184	-41.4414	-27.5213	236.141	-60.0815	-47.1674	216.102	-84.1869	-47.6432	222.42	-10.5445	13.1471	230.098	-6.51695	49.1889	192.14	-0.227645	33.2573	
162	1.35	165.098	-27.9151	44.7661	146.899	-54.9532	23.9355	144.295	-68.9037	-0.198268	151.696	-86.4715	-20.0219	169.905	-8.3265	-32.0778	163.696	-16.3921	-64.1924	152.486	-44.2235	-74.4895	199.672	-5.72304	-44.8611	194.277	-16.6406	-76.2785	183.327	-55.1591	-84.1644	219.758	-17.7506	-40.9962	215.562	-31.3769	-70.3194	204.792	-65.0605	-70.5113	243.464	-41.7944	-24.2093	234.156	-59.5887	-47.2556	213.322	-83.6133	-47.3815	228.357	-12.527	11.9575	234.43	-6.92401	47.1237	192.383	-1.47652	30.2354	
163	1.35833	164.563	-26.658	49.7569	148.476	-51.8512	24.6487	144.057	-67.0158	0.960228	146.655	-85.1169	-17.5588	166.533	-5.65188	-34.7403	162.312	-14.718	-62.6563	154.048	-46.904	-75.9002	198.881	-4.71132	-41.5852	198.281	-17.1607	-75.266	184.807	-49.0219	-84.9088	223.578	-17.6958	-39.5658	220.186	-32.6693	-69.903	210.065	-61.3469	-73.9955	241.803	-42.4704	-25.1417	234.03	-58.4232	-46.2252	213.23	-83.1846	-51.6103	227.519	-10.9493	15.5483	234.881	-6.28592	46.2384	196.488	-1.64704	35.5869	
164	1.36667	169.15	-24.8225	49.1776	148.869	-49.5662	29.4266	139.749	-64.0622	4.29296	139.96	-81.3036	-10.4042	173.684	-4.98671	-32.0044	160.828	-12.7463	-63.1767	153.957	-37.9136	-76.2401	201.605	-5.07988	-42.8771	197.338	-15.605	-74.6949	187.931	-49.6273	-88.9249	225.265	-18.586	-39.0026	221.895	-31.9804	-68.831	210.352	-61.3548	-77.7324	244.331	-43.314	-23.0621	241.466	-60.8131	-45.1356	217.311	-83.7007	-55.3688	232.538	-11.7184	15.9643	239.034	-8.32863	51.1278	199.816	-1.30577	36.4344	
165	1.375	172.533	-21.7853	51.4599	149.37	-46.6419	32.5057	134.531	-61.0044	8.54122	132.957	-78.6013	-7.67507	173.691	-5.32143	-29.5969	163.95	-10.5999	-62.8972	154.373	-32.3306	-78.3937	210.15	-9.24946	-39.8108	203.691	-18.1341	-76.157	193.833	-46.3609	-94.1197	230.909	-22.5175	-37.7583	223.523	-30.3876	-67.1185	215.439	-60.2119	-81.5625	242.929	-47.5871	-25.886	240.856	-61.0817	-43.7958	224.515	-84.7159	-59.2607	233.764	-13.5823	19.0687	242.483	-11.2927	47.6694	203.898	-1.40708	34.6503	
166	1.38333	174.008	-18.427	46.9451	150.875	-41.3194	33.3614	133.773	-54.026	19.1686	125.478	-70.3869	3.29058	181.231	-6.27258	-32.3379	169.924	-10.2428	-63.0406	157.326	-27.068	-81.8262	210.625	-9.76865	-43.0794	205.145	-16.965	-75.5312	193.479	-42.7863	-99.2636	232.725	-26.7982	-36.4614	230.925	-38.0008	-68.9088	219.206	-59.4464	-84.9617	244.569	-51.7591	-19.4861	245.118	-69.0963	-41.3265	227.64	-83.6527	-58.1482	235.122	-18.1935	14.8085	244.718	-14.1482	45.9241	208.826	0.526635	33.122	
167	1.39167	175.587	-14.1799	49.9327	152.808	-35.5742	37.4844	130.775	-48.0634	18.085	120.504	-64.0839	9.63378	181.866	-4.77414	-32.4647	174.676	-7.91117	-59.2882	163.315	-25.3265	-85.9246	214.687	-14.1346	-42.0189	212.91	-21.1553	-72.6248	203.592	-42.745	-102.008	236.322	-34.0433	-35.4345	232.931	-42.4406	-69.2109	224.712	-63.0201	-86.3959	247.714	-62.2213	-18.1436	243.721	-75.3695	-38.0357	231.838	-92.7348	-56.8839	240.136	-24.1991	14.7742	250.774	-17.7867	47.7562	216.636	-1.09722	31.4054	
168	1.4	179.703	-10.9179	51.2165	156.599	-32.5929	36.4198	136.809	-42.1276	22.8809	119.838	-55.2392	11.687	188.618	-7.94248	-31.0548	181.376	-12.3743	-63.2178	170.609	-22.763	-85.0876	220.578	-20.236	-40.3596	218.892	-25.9856	-71.6081	211.929	-44.5035	-99.3545	241.054	-42.6828	-34.9231	238.875	-52.1869	-69.0181	226.415	-67.6213	-88.9067	248.303	-73.1265	-18.9102	241.07	-84.4333	-37.1804	234.474	-99.1428	-56.5348	245.564	-28.6345	16.7309	252.388	-21.5206	45.1744	222.829	-4.98567	33.3459	
169	1.40833	186.77	-8.05764	49.0894	157.175	-24.483	37.8932	137.531	-33.3633	24.5924	114.227	-44.5385	14.6059	197.203	-11.7951	-38.1733	188.247	-12.8903	-60.5796	177.47	-21.0113	-83.8818	226.347	-26.1878	-40.6427	223.888	-32.848	-74.6629	217.255	-48.8341	-101.256	241.329	-49.4033	-33.1544	240.557	-59.331	-66.0775	229.503	-74.1871	-87.7215	245.916	-80.8865	-16.0326	242.029	-92.4571	-30.0972	229.288	-106.507	-55.0589	249.826	-35.4657	15.6305	254.055	-27.0923	51.2928	227.684	-8.13043	33.231	
170	1.41667	192.31	-7.44621	44.1702	159.554	-18.1458	37.79	136.204	-24.3192	21.3212	120.404	-35.1448	14.0071	203.742	-13.3979	-34.7172	196.506	-15.8634	-60.4727	184.074	-23.7661	-89.7817	232.833	-35.4523	-40.5842	228.224	-40.6831	-74.4426	221.87	-57.2686	-100.941	241.382	-55.1942	-32.0809	242.3	-65.7041	-59.1165	233.357	-81.8369	-84.4226	242.868	-85.3647	-11.7198	236.011	-100.839	-30.0751	227.032	-116.981	-49.9074	250.027	-43.3906	17.193	257.935	-33.262	50.3178	234.152	-12.5587	33.5817	
171	1.425	195.322	-3.72165	42.9368	167.245	-14.8598	35.4395	143.252	-19.576	18.4744	122.147	-25.219	10.9912	209.617	-15.3519	-37.4284	202.932	-18.9678	-63.9894	191.629	-25.8424	-88.9876	235.895	-41.2946	-43.0968	234.003	-50.7792	-72.3621	226.512	-63.4023	-99.9035	243.849	-65.2072	-28.2606	240.785	-73.5991	-60.45	233.267	-89.7457	-83.3347	239.824	-92.939	-10.5239	234.056	-105.292	-23.4597	222.386	-121.174	-47.0208	250.344	-47.3292	20.4044	259.384	-41.7971	50.0529	237.843	-12.1334	32.4979	
172	1.43333	202.95	-4.42708	41.0635	170.915	-9.74308	33.1749	145.011	-8.88037	18.3438	124.66	-14.845	7.35012	215.113	-17.5634	-36.4646	206.687	-19.9628	-65.4647	198.445	-28.086	-91.4809	237.347	-44.5532	-41.6828	234.567	-53.1063	-73.0857	228.259	-69.4698	-96.6214	242.867	-70.2058	-29.8555	242.41	-81.2791	-54.669	230.665	-91.4218	-79.533	236.192	-98.8879	-2.04572	227.719	-114.292	-20.6529	215.029	-123.924	-42.7551	250.965	-54.4859	20.3771	259.229	-46.6842	51.1371	244.678	-20.4461	32.1704	
173	1.44167	209.638	-4.58496	40.9253	176.877	-6.98661	31.3947	151.541	-1.73589	16.5702	128.268	-3.81264	6.38624	219.621	-20.8587	-40.5738	214.559	-26.2694	-65.1617	206.306	-35.5518	-90.745	240.638	-53.7706	-40.2368	237.897	-59.9599	-70.0296	228.763	-75.4805	-97.4742	241.456	-75.8291	-26.525	238.993	-85.68	-54.928	228.332	-99.5425	-79.1129	230.25	-102.914	-0.17669	221.791	-114.29	-17.6536	211.45	-128.046	-39.6515	249.315	-59.3382	23.9536	261.359	-52.686	54.2918	245.888	-20.7634	30.1055	
